<svg width="7" height="7" viewBox="0 0 7 7" fill="none" xmlns="http://www.w3.org/2000/svg">
<path d="M4.52532 3.32231L6.31554 5.21849C6.43896 5.37707 6.50687 5.5718 6.50883 5.77273C6.50465 5.87723 6.47648 5.97936 6.42651 6.07123C6.37654 6.16309 6.3061 6.24223 6.22065 6.30252C6.01885 6.46385 5.76816 6.55172 5.5098 6.55169C5.38291 6.56061 5.25563 6.54115 5.1372 6.49473C5.01877 6.4483 4.91217 6.37608 4.82515 6.28331L3.24801 4.60021L1.67087 6.28331C1.58418 6.37776 1.47756 6.45173 1.35874 6.49986C1.23992 6.548 1.11187 6.56908 0.983892 6.56159C0.728598 6.56073 0.481576 6.47097 0.285269 6.30776C0.200654 6.2458 0.131074 6.16559 0.0816899 6.07307C0.0323058 5.98055 0.00438629 5.8781 0 5.77331C0.00195207 5.57228 0.0700874 5.37749 0.193868 5.21907L1.97419 3.3229L0.193868 1.37782C0.0692555 1.21717 0.00111242 1.0199 0 0.816589C0.00398058 0.710005 0.0313969 0.605607 0.0802996 0.51082C0.129202 0.416033 0.19839 0.333186 0.282942 0.268171C0.477243 0.100023 0.724634 0.00580809 0.981565 0.00211227C1.1105 -0.00705725 1.2398 0.0137105 1.35938 0.0627934C1.47896 0.111876 1.58556 0.187945 1.67087 0.285054L3.24801 2.01647L4.82748 0.284472C4.91403 0.189206 5.02097 0.114705 5.14032 0.0665211C5.25967 0.0183371 5.38836 -0.00228647 5.51679 0.00618755C5.77616 0.00605439 6.02719 0.0978445 6.2253 0.26526C6.31071 0.329646 6.38064 0.412303 6.43 0.507187C6.47936 0.602072 6.50689 0.706788 6.51058 0.813678C6.50958 1.01762 6.44168 1.21561 6.31729 1.37723L4.52532 3.32231Z" fill="white"/>
</svg>
